<?xml version="1.0" standalone="no"?>
<!DOCTYPE svg PUBLIC "-//W3C//DTD SVG 20010904//EN"
 "http://www.w3.org/TR/2001/REC-SVG-20010904/DTD/svg10.dtd">
<svg version="1.0" xmlns="http://www.w3.org/2000/svg"
 width="1024.000000pt" height="256.000000pt" viewBox="0 0 1024.000000 256.000000"
 preserveAspectRatio="xMidYMid meet">

<g transform="translate(0.000000,256.000000) scale(0.100000,-0.100000)"
fill="#ff0000" stroke="none">
<path d="M3551 2549 c-560 -25 -903 -118 -1230 -332 -240 -157 -366 -275
-1416 -1320 l-900 -896 719 -1 719 0 281 274 c722 703 1012 977 1126 1065 202
156 394 222 735 251 76 6 809 10 2000 10 l1880 0 480 480 480 480 -2350 -2
c-1293 0 -2428 -5 -2524 -9z"/>
<path d="M7425 1280 l-1280 -1280 765 0 765 0 1280 1280 1280 1280 -765 0
-765 0 -1280 -1280z"/>
<path d="M3675 1433 c-106 -6 -298 -33 -380 -54 -102 -26 -223 -83 -322 -151
-79 -54 -528 -485 -1023 -982 l-245 -246 669 0 669 0 206 203 c220 217 296
275 396 306 127 40 178 41 1493 41 l1277 0 445 445 445 445 -1785 -2 c-982 -1
-1812 -3 -1845 -5z"/>
<path d="M8330 295 c0 -23 3 -25 50 -25 l50 0 0 -135 0 -135 30 0 30 0 0 135
0 135 50 0 c47 0 50 2 50 25 l0 25 -130 0 -130 0 0 -25z"/>
<path d="M8630 160 l0 -160 25 0 25 0 1 123 0 122 43 -120 c38 -104 47 -120
67 -123 22 -3 27 6 63 110 21 62 43 117 47 122 5 6 9 -44 9 -112 l0 -122 25 0
25 0 0 160 0 160 -39 0 -39 0 -44 -126 -45 -127 -41 117 c-23 65 -42 122 -42
127 0 5 -18 9 -40 9 l-40 0 0 -160z"/>
</g>
</svg>
